<mxfile host="app.diagrams.net" agent="Mozilla/5.0 (Windows NT 10.0; Win64; x64) AppleWebKit/537.36 (KHTML, like Gecko) Chrome/134.0.0.0 Safari/537.36" version="26.1.1">
  <diagram name="Página-1" id="mUL9Ht5_z3P--zaJDhxZ">
    <mxGraphModel dx="880" dy="460" grid="1" gridSize="10" guides="1" tooltips="1" connect="1" arrows="1" fold="1" page="1" pageScale="1" pageWidth="827" pageHeight="1169" math="0" shadow="0">
      <root>
        <mxCell id="0" />
        <mxCell id="1" parent="0" />
        <mxCell id="4FsCKdtPVEaY1Zh_v6ef-3" value="" style="edgeStyle=orthogonalEdgeStyle;rounded=0;orthogonalLoop=1;jettySize=auto;html=1;" edge="1" parent="1" source="4FsCKdtPVEaY1Zh_v6ef-1" target="4FsCKdtPVEaY1Zh_v6ef-2">
          <mxGeometry relative="1" as="geometry" />
        </mxCell>
        <mxCell id="4FsCKdtPVEaY1Zh_v6ef-1" value="inicio" style="ellipse;whiteSpace=wrap;html=1;fillColor=#d5e8d4;strokeColor=#82b366;" vertex="1" parent="1">
          <mxGeometry x="354" y="30" width="120" height="80" as="geometry" />
        </mxCell>
        <mxCell id="4FsCKdtPVEaY1Zh_v6ef-5" value="" style="edgeStyle=orthogonalEdgeStyle;rounded=0;orthogonalLoop=1;jettySize=auto;html=1;" edge="1" parent="1" source="4FsCKdtPVEaY1Zh_v6ef-2" target="4FsCKdtPVEaY1Zh_v6ef-4">
          <mxGeometry relative="1" as="geometry" />
        </mxCell>
        <mxCell id="4FsCKdtPVEaY1Zh_v6ef-2" value="horas = pedir ao usuário&lt;div&gt;minutos = pedir ao usuário&lt;/div&gt;" style="shape=parallelogram;perimeter=parallelogramPerimeter;whiteSpace=wrap;html=1;fixedSize=1;fillColor=#d5e8d4;strokeColor=#82b366;" vertex="1" parent="1">
          <mxGeometry x="306" y="200" width="216" height="60" as="geometry" />
        </mxCell>
        <mxCell id="4FsCKdtPVEaY1Zh_v6ef-7" value="" style="edgeStyle=orthogonalEdgeStyle;rounded=0;orthogonalLoop=1;jettySize=auto;html=1;" edge="1" parent="1" source="4FsCKdtPVEaY1Zh_v6ef-4" target="4FsCKdtPVEaY1Zh_v6ef-6">
          <mxGeometry relative="1" as="geometry" />
        </mxCell>
        <mxCell id="4FsCKdtPVEaY1Zh_v6ef-4" value="segundos = ((horas*60)*60)+(minutos*60)" style="whiteSpace=wrap;html=1;fillColor=#d5e8d4;strokeColor=#82b366;" vertex="1" parent="1">
          <mxGeometry x="354" y="340" width="120" height="60" as="geometry" />
        </mxCell>
        <mxCell id="4FsCKdtPVEaY1Zh_v6ef-9" value="" style="edgeStyle=orthogonalEdgeStyle;rounded=0;orthogonalLoop=1;jettySize=auto;html=1;" edge="1" parent="1" source="4FsCKdtPVEaY1Zh_v6ef-6" target="4FsCKdtPVEaY1Zh_v6ef-8">
          <mxGeometry relative="1" as="geometry" />
        </mxCell>
        <mxCell id="4FsCKdtPVEaY1Zh_v6ef-6" value="resultado da conversao de horas e minutos para segundos" style="shape=document;whiteSpace=wrap;html=1;boundedLbl=1;fillColor=#d5e8d4;strokeColor=#82b366;" vertex="1" parent="1">
          <mxGeometry x="354" y="470" width="120" height="80" as="geometry" />
        </mxCell>
        <mxCell id="4FsCKdtPVEaY1Zh_v6ef-8" value="fim" style="ellipse;whiteSpace=wrap;html=1;fillColor=#d5e8d4;strokeColor=#82b366;" vertex="1" parent="1">
          <mxGeometry x="374" y="630" width="80" height="80" as="geometry" />
        </mxCell>
      </root>
    </mxGraphModel>
  </diagram>
</mxfile>
